<svg xmlns="http://www.w3.org/2000/svg" xmlns:xlink="http://www.w3.org/1999/xlink" xmlns:lucid="lucid" width="1740" height="678.21"><g transform="translate(0 0)" lucid:page-tab-id="0_0"><path d="M60 209.1H28c-4.42 0-8-3.58-8-8V28c0-4.42 3.58-8 8-8h32z" stroke="#b2b2b2" stroke-width="2" fill="#a5a7aa"/><path d="M60 20h1652c4.42 0 8 3.58 8 8v173.1c0 4.42-3.58 8-8 8H60z" stroke="#b2b2b2" stroke-width="2" fill="none"/><use xlink:href="#a" transform="matrix(-1.8369701987210297e-16,-1,1,-1.8369701987210297e-16,20.000000000000014,209.10339045804608) translate(21.7222222222222 24)"/><path d="M60 658.2H28c-4.42 0-8-3.57-8-8V288c0-4.42 3.58-8 8-8h32z" stroke="#b2b2b2" stroke-width="2" fill="#a5a7aa"/><path d="M60 280h1652c4.42 0 8 3.58 8 8v181.1H60zM1720 469.1v181.1c0 4.43-3.58 8-8 8H60V469.1z" stroke="#b2b2b2" stroke-width="2" fill="none"/><use xlink:href="#b" transform="matrix(-1.8369701987210297e-16,-1,1,-1.8369701987210297e-16,20.000000000000057,658.2067809160922) translate(154.63888888888889 24)"/><use xlink:href="#c" transform="matrix(-1.8369701987210297e-16,-1,1,-1.8369701987210297e-16,60.000000000000114,658.2067809160922) translate(71.72222222222223 24)"/><path d="M141.6 115.17c0 16.57-13.43 30-30 30s-30-13.43-30-30 13.43-30 30-30 30 13.43 30 30z" stroke="#333" fill="#d2d3d5"/><path d="M505.16 159.05v4.87m0 4.88v9.74m0 4.87v9.76m0 4.87v9.74m0 4.88v9.74m0 4.86V237m0 4.88v9.74m0 4.88v9.74m0 4.87v9.76m0 4.87v9.75m0 4.87v4.87" stroke="#333" fill="none"/><path d="M505.16 145.76l7.07 7.07-7.07 7.93-7.07-7.93zM505.16 320l-4.64-14.28h9.27z" stroke="#333" fill="#fff"/><path d="M142.6 115.17h38.85c.17 0 .3-.14.3-.3 0-.18.15-.32.32-.32h22.96" stroke="#333" fill="none"/><path d="M142.6 115.67h-.54l.04-.5-.02-.5h.53" fill="#333"/><path d="M219.8 114.55l-14.27 4.64v-9.28z" stroke="#333" fill="#333"/><path d="M1680 110c0 16.57-13.43 30-30 30s-30-13.43-30-30 13.43-30 30-30 30 13.43 30 30z" stroke="#333" stroke-width="5" fill="#d2d3d5"/><path d="M1671.25 110c0 11.74-9.5 21.25-21.25 21.25-11.74 0-21.25-9.5-21.25-21.25 0-11.74 9.5-21.25 21.25-21.25 11.74 0 21.25 9.5 21.25 21.25z" fill="#333"/><path d="M699.42 420.8V558c0 6.63 5.37 12 12 12H1638c6.63 0 12-5.37 12-12V429" stroke="#333" fill="none"/><path d="M699.92 420.82h-1v-1l.5.5.5-.5" fill="#333"/><path d="M1650 414.22l4.64 14.27h-9.28z" stroke="#333" fill="#333"/><use xlink:href="#d" transform="matrix(1,0,0,1,718.9490142930023,573.9999999999998) translate(0.0049999999999954525 14.222222222222223)"/><use xlink:href="#e" transform="matrix(1,0,0,1,718.9490142930023,573.9999999999998) translate(69.93092592592592 14.222222222222223)"/><use xlink:href="#f" transform="matrix(1,0,0,1,718.9490142930023,573.9999999999998) translate(190.96796296296296 14.222222222222223)"/><use xlink:href="#g" transform="matrix(1,0,0,1,718.9490142930023,573.9999999999998) translate(288.7951234567901 14.222222222222223)"/><use xlink:href="#h" transform="matrix(1,0,0,1,718.9490142930023,573.9999999999998) translate(313.78277777777777 14.222222222222223)"/><path d="M1316 344.6l24 22.5v52.5h-60v-75z" stroke="#333" fill="#d2d3d5"/><path d="M1316 344.6v22.5h24" stroke="#333" fill="none"/><path d="M535.16 114.55c0 16.57-13.43 30-30 30s-30-13.43-30-30 13.43-30 30-30 30 13.43 30 30z" stroke="#333" fill="#d7e9ff"/><path d="M532.16 114.55c0 14.9-12.1 27-27 27s-27-12.1-27-27 12.1-27 27-27 27 12.1 27 27z" stroke="#333" fill="#d7e9ff"/><path d="M485.16 103.3h40v22.5h-40z" stroke="#333" fill="#fff"/><path d="M485.16 103.3l20 11.25 20-11.25" stroke="#333" fill="none"/><path d="M221.92 59.55c0-2.76 2.24-5 5-5h150c2.76 0 5 2.24 5 5v110c0 2.76-2.24 5-5 5h-150c-2.76 0-5-2.24-5-5z" stroke="#333" fill="#3278ca"/><use xlink:href="#i" transform="matrix(1,0,0,1,221.91666269890607,54.55169522902304) translate(20.96601562499997 44.15166666666667)"/><use xlink:href="#j" transform="matrix(1,0,0,1,221.91666269890607,54.55169522902304) translate(12.88285879629627 65.37916666666668)"/><use xlink:href="#k" transform="matrix(1,0,0,1,221.91666269890607,54.55169522902304) translate(49.09736689814814 86.60666666666668)"/><path d="M382.92 114.55h45.33c.17 0 .3-.14.3-.3 0-.18.15-.32.32-.32h29.45" stroke="#333" fill="none"/><path d="M382.93 115.05h-.5v-1h.5" fill="#333"/><path d="M473.1 113.93l-14.28 4.64v-9.27z" stroke="#333" fill="#333"/><path d="M425.16 327.1c0-2.76 2.24-5 5-5h150c2.76 0 5 2.24 5 5v110c0 2.76-2.24 5-5 5h-150c-2.76 0-5-2.24-5-5z" stroke="#333" fill="#3278ca"/><use xlink:href="#l" transform="matrix(1,0,0,1,425.1579375128201,322.1033904578641) translate(15.487158564814786 51.65166666666667)"/><use xlink:href="#m" transform="matrix(1,0,0,1,425.1579375128201,322.1033904578641) translate(86.88428240740741 51.65166666666667)"/><use xlink:href="#n" transform="matrix(1,0,0,1,425.1579375128201,322.1033904578641) translate(31.899160879629612 72.87916666666668)"/><use xlink:href="#o" transform="matrix(1,0,0,1,425.1579375128201,322.1033904578641) translate(61.33266203703703 72.87916666666668)"/><path d="M1161.92 382.1c0 16.57-13.43 30-30 30s-30-13.43-30-30 13.43-30 30-30 30 13.43 30 30z" stroke="#333" fill="#d7e9ff"/><path d="M1158.92 382.1c0 14.92-12.1 27-27 27-14.92 0-27-12.08-27-27 0-14.9 12.08-27 27-27 14.9 0 27 12.1 27 27z" stroke="#333" fill="#d7e9ff"/><path d="M1151.92 382.1c0 11.05-8.96 20-20 20-11.05 0-20-8.95-20-20 0-11.04 8.95-20 20-20 11.04 0 20 8.96 20 20zm0 0h-4m1.32 10l-3.47-2m-3.85 9.32l-2-3.46m-8 6.14v-4m-10 1.32l2-3.46m-9.32-3.86l3.46-2m-6.14-8h4m-1.32-10l3.46 2m3.86-9.32l2 3.47m8-6.15v4m10-1.32l-2 3.47m9.32 3.85l-3.47 2m-13.85 8v-12m0 12h7" stroke="#333" fill="#fff"/><path d="M841.92 327.1c0-2.76 2.24-5 5-5h150c2.76 0 5 2.24 5 5v110c0 2.76-2.24 5-5 5h-150c-2.76 0-5-2.24-5-5z" stroke="#333" fill="#3278ca"/><use xlink:href="#p" transform="matrix(1,0,0,1,841.9166626989061,322.1033904578641) translate(8.755289351851824 44.15166666666667)"/><use xlink:href="#q" transform="matrix(1,0,0,1,841.9166626989061,322.1033904578641) translate(70.03004050925925 44.15166666666667)"/><use xlink:href="#r" transform="matrix(1,0,0,1,841.9166626989061,322.1033904578641) translate(20.72032696759257 65.37916666666668)"/><use xlink:href="#s" transform="matrix(1,0,0,1,841.9166626989061,322.1033904578641) translate(45.485743634259244 86.60666666666668)"/><path d="M586.16 382.1h58.67" stroke="#333" fill="none"/><path d="M586.17 382.6h-.5v-1h.5" fill="#333"/><path d="M659.6 382.1l-14.27 4.64v-9.27z" stroke="#333" fill="#333"/><path d="M661.92 382.1l37.5-37.5 37.5 37.5-37.5 37.5z" stroke="#333" fill="#fff"/><path d="M736.02 380h89" stroke="#333" fill="none"/><path fill="#333"/><path d="M839.8 380l-14.27 4.64v-9.28z" stroke="#333" fill="#333"/><path d="M1002.92 382.1h82.1" stroke="#333" fill="none"/><path d="M1002.93 382.6h-.5v-1h.5" fill="#333"/><path d="M1099.8 382.1l-14.27 4.64v-9.27z" stroke="#333" fill="#333"/><path d="M1162.92 382.1h100.2" stroke="#333" fill="none"/><path d="M1162.93 382.6h-.55l.04-.48-.02-.52h.53" fill="#333"/><path d="M1277.88 382.1l-14.26 4.64v-9.27z" stroke="#333" fill="#333"/><path d="M1341 382.1h262.12" stroke="#333" fill="none"/><path d="M1341 382.6h-.5v-1h.5" fill="#333"/><path d="M1617.88 382.1l-14.26 4.64v-9.27z" stroke="#333" fill="#333"/><g><use xlink:href="#d" transform="matrix(1,0,0,1,1345.9291039486225,386.10339045786407) translate(0.0049999999999954525 14.222222222222223)"/><use xlink:href="#e" transform="matrix(1,0,0,1,1345.9291039486225,386.10339045786407) translate(69.93092592592592 14.222222222222223)"/><use xlink:href="#t" transform="matrix(1,0,0,1,1345.9291039486225,386.10339045786407) translate(190.96796296296296 14.222222222222223)"/></g><path d="M579.42 353.1c0-4.4 3.58-8 8-8h224c4.4 0 8 3.6 8 8v58c0 4.42-3.6 8-8 8h-224c-4.42 0-8-3.58-8-8z" stroke="#000" stroke-opacity="0" fill="#fff" fill-opacity="0"/><g><use xlink:href="#u" transform="matrix(1,0,0,1,584.4166626989061,350.1033904578641) translate(103.17283950617283 14.222222222222223)"/><use xlink:href="#v" transform="matrix(1,0,0,1,584.4166626989061,350.1033904578641) translate(86.65432098765432 35.55555555555556)"/><use xlink:href="#w" transform="matrix(1,0,0,1,584.4166626989061,350.1033904578641) translate(55.17283950617284 56.88888888888889)"/></g><path d="M1680 382.1c0 16.57-13.43 30-30 30s-30-13.43-30-30 13.43-30 30-30 30 13.43 30 30z" stroke="#333" fill="#d7e9ff"/><path d="M1677 382.1c0 14.92-12.1 27-27 27s-27-12.08-27-27c0-14.9 12.1-27 27-27s27 12.1 27 27z" stroke="#333" fill="#d7e9ff"/><path d="M1630 370.85h40v22.5h-40z" stroke="#333" fill="#fff"/><path d="M1630 370.85l20 11.25 20-11.25M1650 337.6v-4.96m0-4.97v-9.92m0-4.97v-9.93m0-4.96v-9.94m0-4.97v-9.93m0-4.97v-9.93m0-4.96v-9.92m0-4.96v-9.93m0-4.98v-9.93m0-4.97v-9.93m0-4.96v-9.93m0-4.96v-9.93m0-4.95v-4.96" stroke="#333" fill="none"/><path d="M1650 350.9l-7.07-7.08 7.07-7.92 7.07 7.92zM1650 144.12l4.64 14.27h-9.28z" stroke="#333" fill="#fff"/><defs><path fill="#fff" d="M214-190L176 0h-49l31-157H86L56 0H6l37-190h171" id="x"/><path fill="#fff" d="M124-194c51 0 84 22 84 74C207-44 167 4 94 4 43 4 11-23 11-74c0-74 41-120 113-120zM99-30c46 0 58-42 58-86 0-27-11-44-37-44-44 0-55 40-57 84-1 27 10 45 36 46" id="y"/><path fill="#fff" d="M131 0l31-157h-50C88-102 83-25 32 1 19 8 0 3-14 0l6-32c37 6 40-27 50-55l35-103h141L181 0h-50" id="z"/><path fill="#fff" d="M193-60C193 19 77 7 7-4l36-186h49l-14 76c57-1 115-1 115 54zm-51 2c-1-29-39-25-70-25L61-30c31 6 82 7 81-28" id="A"/><path fill="#fff" d="M164-55c1 62-94 72-137 44C14-20 5-34 2-51l44-8c0 35 69 42 68 2-1-21-21-26-46-26l5-31c27 0 55-2 55-28 0-32-60-23-62 5l-40-3c9-36 36-54 80-54 36 0 70 11 70 46 0 33-26 44-53 51 23 5 41 16 41 42" id="B"/><path fill="#fff" d="M60-174c35-28 146-31 148 28 1 32-26 40-49 48 22 5 41 15 41 41C200 20 77 6 7-4c14-60 12-138 53-170zm89 116c-1-29-45-24-77-24l-9 49c33 2 87 12 86-25zm7-80c0-32-63-26-69-2-4 6-8 17-9 29 34 0 78 4 78-27" id="C"/><path fill="#fff" d="M166-52c-4 17 5 29 24 23l-3 27c-30 11-74 1-67-34C105-15 91 4 56 4 23 4 3-15 2-49c0-64 63-67 128-67 10-22 3-53-29-45-13 3-22 10-25 24l-46-5c5-64 156-77 153 0-1 33-11 60-17 90zM97-88c-44-9-64 57-19 57 31 0 42-28 47-57H97" id="D"/><path fill="#fff" d="M255-194c90 0 29 129 24 194h-49l25-136c-7-39-53-14-60 9-12 38-18 85-28 127h-49l25-136c2-29-39-23-50-7C69-108 68-47 56 0H6l36-190h48c-1 10-6 24-4 32 12-20 27-36 57-36s46 15 50 41c14-21 29-41 62-41" id="E"/><path fill="#fff" d="M114-194c63-2 87 48 72 110H63c-3 28 1 55 31 54 21-1 32-13 37-29l44 13C160-14 137 4 91 4 41 4 11-22 11-73c0-71 33-119 103-121zm30 77c14-47-50-61-67-22-3 6-6 13-8 22h75" id="F"/><g id="a"><use transform="matrix(0.05555555555555555,0,0,0.05555555555555555,0,0)" xlink:href="#x"/><use transform="matrix(0.05555555555555555,0,0,0.05555555555555555,12.166666666666666,0)" xlink:href="#y"/><use transform="matrix(0.05555555555555555,0,0,0.05555555555555555,24.333333333333332,0)" xlink:href="#z"/><use transform="matrix(0.05555555555555555,0,0,0.05555555555555555,36.72222222222222,0)" xlink:href="#A"/><use transform="matrix(0.05555555555555555,0,0,0.05555555555555555,48.55555555555556,0)" xlink:href="#B"/><use transform="matrix(0.05555555555555555,0,0,0.05555555555555555,58.44444444444444,0)" xlink:href="#y"/><use transform="matrix(0.05555555555555555,0,0,0.05555555555555555,70.61111111111111,0)" xlink:href="#C"/><use transform="matrix(0.05555555555555555,0,0,0.05555555555555555,82.3888888888889,0)" xlink:href="#D"/><use transform="matrix(0.05555555555555555,0,0,0.05555555555555555,93.50000000000001,0)" xlink:href="#E"/><use transform="matrix(0.05555555555555555,0,0,0.05555555555555555,111.00000000000003,0)" xlink:href="#F"/><use transform="matrix(0.05555555555555555,0,0,0.05555555555555555,122.33333333333337,0)" xlink:href="#z"/><use transform="matrix(0.05555555555555555,0,0,0.05555555555555555,134.72222222222226,0)" xlink:href="#A"/></g><path fill="#fff" d="M67-101c-8 29-7 73 27 71 23-2 32-16 39-37l48 9C170-19 141 4 91 4 36 4 7-28 12-86c6-75 61-124 140-103 26 7 40 29 43 59l-50 4c-1-20-9-34-29-34-35 0-41 29-49 59" id="G"/><path fill="#fff" d="M156-122c2-23-7-37-28-37-47 0-58 44-58 89 0 24 12 40 36 40 43 0 47-49 50-92zM-8 75l50-265h48c0 10-3 24-3 30 22-50 127-45 121 29-6 73-21 135-92 135-29 0-46-14-55-35L41 75H-8" id="H"/><path fill="#fff" d="M69 3c-96 0-34-126-28-193h49L65-57c6 42 62 18 71-6 14-38 17-86 28-127h50L178 0h-47c0-11 4-26 3-33-14 20-30 37-65 36" id="I"/><g id="b"><use transform="matrix(0.05555555555555555,0,0,0.05555555555555555,0,0)" xlink:href="#G"/><use transform="matrix(0.05555555555555555,0,0,0.05555555555555555,11.11111111111111,0)" xlink:href="#F"/><use transform="matrix(0.05555555555555555,0,0,0.05555555555555555,22.22222222222222,0)" xlink:href="#H"/><use transform="matrix(0.05555555555555555,0,0,0.05555555555555555,34.388888888888886,0)" xlink:href="#C"/><use transform="matrix(0.05555555555555555,0,0,0.05555555555555555,46.44444444444444,0)" xlink:href="#I"/><use transform="matrix(0.05555555555555555,0,0,0.05555555555555555,58.61111111111111,0)" xlink:href="#G"/></g><path fill="#fff" d="M24 0v-248h52v208h133V0H24" id="J"/><path fill="#fff" d="M133-34C117-15 103 5 69 4 32 3 11-16 11-54c-1-60 55-63 116-61 1-26-3-47-28-47-18 1-26 9-28 27l-52-2c7-38 36-58 82-57s74 22 75 68l1 82c-1 14 12 18 25 15v27c-30 8-71 5-69-32zm-48 3c29 0 43-24 42-57-32 0-66-3-65 30 0 17 8 27 23 27" id="K"/><path fill="#fff" d="M135-194c87-1 58 113 63 194h-50c-7-57 23-157-34-157-59 0-34 97-39 157H25l-1-190h47c2 12-1 28 3 38 12-26 28-41 61-42" id="L"/><path fill="#fff" d="M185-48c-13 30-37 53-82 52C43 2 14-33 14-96s30-98 90-98c62 0 83 45 84 108H66c0 31 8 55 39 56 18 0 30-7 34-22zm-45-69c5-46-57-63-70-21-2 6-4 13-4 21h74" id="M"/><g id="c"><use transform="matrix(0.05555555555555555,0,0,0.05555555555555555,0,0)" xlink:href="#J"/><use transform="matrix(0.05555555555555555,0,0,0.05555555555555555,12.166666666666666,0)" xlink:href="#K"/><use transform="matrix(0.05555555555555555,0,0,0.05555555555555555,23.27777777777778,0)" xlink:href="#L"/><use transform="matrix(0.05555555555555555,0,0,0.05555555555555555,35.44444444444444,0)" xlink:href="#M"/></g><path fill="#333" d="M176-55C176 11 93 0 25 0v-190c61 3 142-15 144 47 1 29-21 35-39 44 27 3 46 16 46 44zm-34 0c0-41-47-30-85-32v64c38-1 85 8 85-32zm-6-83c0-36-44-26-79-28v56c34-2 79 8 79-28" id="N"/><path fill="#333" d="M100-194c63 0 86 42 84 106H49c0 40 14 67 53 68 26 1 43-12 49-29l28 8c-11 28-37 45-77 45C44 4 14-33 15-96c1-61 26-98 85-98zm52 81c6-60-76-77-97-28-3 7-6 17-6 28h103" id="O"/><path fill="#333" d="M115-194c55 1 70 41 70 98S169 2 115 4C84 4 66-9 55-30l1 105H24l-1-265h31l2 30c10-21 28-34 59-34zm-8 174c40 0 45-34 45-75s-6-73-45-74c-42 0-51 32-51 76 0 43 10 73 51 73" id="P"/><path fill="#333" d="M57-190v80h85v-80h32V0h-32v-87H57V0H25v-190h32" id="Q"/><path fill="#333" d="M179-190L93 31C79 59 56 82 12 73V49c39 6 53-20 64-50L1-190h34L92-34l54-156h33" id="R"/><path fill="#333" d="M6-190h153v23H98V0H67v-167H6v-23" id="S"/><path fill="#333" d="M173-56C173 11 92 0 25 0v-190h32v80c58-2 117-2 116 54zm-34 0c0-39-44-31-82-32v66c39 0 82 6 82-34" id="T"/><g id="d"><use transform="matrix(0.04938271604938272,0,0,0.04938271604938272,0,0)" xlink:href="#N"/><use transform="matrix(0.04938271604938272,0,0,0.04938271604938272,9.234567901234568,0)" xlink:href="#O"/><use transform="matrix(0.04938271604938272,0,0,0.04938271604938272,19.111111111111114,0)" xlink:href="#P"/><use transform="matrix(0.04938271604938272,0,0,0.04938271604938272,28.987654320987655,0)" xlink:href="#Q"/><use transform="matrix(0.04938271604938272,0,0,0.04938271604938272,38.76543209876544,0)" xlink:href="#R"/><use transform="matrix(0.04938271604938272,0,0,0.04938271604938272,47.65432098765433,0)" xlink:href="#S"/><use transform="matrix(0.04938271604938272,0,0,0.04938271604938272,55.75308641975309,0)" xlink:href="#T"/></g><path fill="#333" d="M170-190V0h-32v-167H57V0H25v-190h145" id="U"/><path fill="#333" d="M100-194c62-1 85 37 85 99 1 63-27 99-86 99S16-35 15-95c0-66 28-99 85-99zM99-20c44 1 53-31 53-75 0-43-8-75-51-75s-53 32-53 75 10 74 51 75" id="V"/><path fill="#333" d="M153 0v-167H87C74-108 81-27 38 0 29 5 12 6 2 1v-22c51 4 39-64 49-112 5-25 4-25 8-57h126V0h-32" id="W"/><path fill="#333" d="M152-53C154 19 21 22 9-41l28-8c5 36 84 42 81-4-1-29-28-34-58-35v-24c28 0 55-4 55-30 0-19-14-29-34-28-20 0-35 7-38 25l-28-3c4-33 30-46 66-46 37 0 66 15 66 50 0 27-20 41-44 44 27 5 48 17 49 47" id="X"/><path fill="#333" d="M141-36C126-15 110 5 73 4 37 3 15-17 15-53c-1-64 63-63 125-63 3-35-9-54-41-54-24 1-41 7-42 31l-33-3c5-37 33-52 76-52 45 0 72 20 72 64v82c-1 20 7 32 28 27v20c-31 9-61-2-59-35zM48-53c0 20 12 33 32 33 41-3 63-29 60-74-43 2-92-5-92 41" id="Y"/><path fill="#333" d="M175-194c59 1 80 36 80 99 0 62-25 99-81 99-54 0-76-36-78-91H57V0H25v-190h32v80h39c4-56 30-84 79-84zm-1 174c42 1 48-34 48-75 0-42-6-75-46-75-41-1-47 34-47 75s6 74 45 75" id="Z"/><g id="e"><use transform="matrix(0.04938271604938272,0,0,0.04938271604938272,0,0)" xlink:href="#U"/><use transform="matrix(0.04938271604938272,0,0,0.04938271604938272,9.580246913580249,0)" xlink:href="#V"/><use transform="matrix(0.04938271604938272,0,0,0.04938271604938272,19.06172839506173,0)" xlink:href="#W"/><use transform="matrix(0.04938271604938272,0,0,0.04938271604938272,29.4320987654321,0)" xlink:href="#T"/><use transform="matrix(0.04938271604938272,0,0,0.04938271604938272,38.66666666666667,0)" xlink:href="#X"/><use transform="matrix(0.04938271604938272,0,0,0.04938271604938272,46.61728395061729,0)" xlink:href="#V"/><use transform="matrix(0.04938271604938272,0,0,0.04938271604938272,56.49382716049383,0)" xlink:href="#N"/><use transform="matrix(0.04938271604938272,0,0,0.04938271604938272,65.7283950617284,0)" xlink:href="#Y"/><use transform="matrix(0.04938271604938272,0,0,0.04938271604938272,75.20987654320989,0)" xlink:href="#S"/><use transform="matrix(0.04938271604938272,0,0,0.04938271604938272,83.11111111111111,0)" xlink:href="#O"/><use transform="matrix(0.04938271604938272,0,0,0.04938271604938272,92.39506172839506,0)" xlink:href="#W"/><use transform="matrix(0.04938271604938272,0,0,0.04938271604938272,102.76543209876544,0)" xlink:href="#Z"/></g><path fill="#333" d="M96-169c-40 0-48 33-48 73s9 75 48 75c24 0 41-14 43-38l32 2c-6 37-31 61-74 61-59 0-76-41-82-99-10-93 101-131 147-64 4 7 5 14 7 22l-32 3c-4-21-16-35-41-35" id="aa"/><path fill="#333" d="M105-20c41 1 53-27 53-68 0-40-9-69-50-69s-54 27-54 69c0 40 12 68 51 68zM47-134c10-28 31-47 68-47 56 0 76 33 76 92 1 60-28 90-86 93C-9 9 1-201 72-238c29-15 73-21 110-26v28c-67 12-144 10-135 102" id="ab"/><path fill="#333" d="M25 0v-190h32v167h71v-167h31v167h71v-167h32v167h26v95h-29V0H25" id="ac"/><path fill="#333" d="M56-190L54-37l88-153h34V0h-30l2-153L59 0H25v-190h31" id="ad"/><g id="f"><use transform="matrix(0.04938271604938272,0,0,0.04938271604938272,0,0)" xlink:href="#aa"/><use transform="matrix(0.04938271604938272,0,0,0.04938271604938272,9.086419753086421,0)" xlink:href="#V"/><use transform="matrix(0.04938271604938272,0,0,0.04938271604938272,18.962962962962965,0)" xlink:href="#V"/><use transform="matrix(0.04938271604938272,0,0,0.04938271604938272,28.83950617283951,0)" xlink:href="#ab"/><use transform="matrix(0.04938271604938272,0,0,0.04938271604938272,39.01234567901235,0)" xlink:href="#ac"/><use transform="matrix(0.04938271604938272,0,0,0.04938271604938272,53.4320987654321,0)" xlink:href="#O"/><use transform="matrix(0.04938271604938272,0,0,0.04938271604938272,63.308641975308646,0)" xlink:href="#Q"/><use transform="matrix(0.04938271604938272,0,0,0.04938271604938272,73.08641975308643,0)" xlink:href="#ad"/><use transform="matrix(0.04938271604938272,0,0,0.04938271604938272,83.01234567901236,0)" xlink:href="#O"/></g><g id="g"><use transform="matrix(0.04938271604938272,0,0,0.04938271604938272,0,0)" xlink:href="#V"/><use transform="matrix(0.04938271604938272,0,0,0.04938271604938272,9.876543209876544,0)" xlink:href="#ab"/></g><path fill="#333" d="M25 0v-190h32v167h72v-167h31v167h72v-167h32V0H25" id="ae"/><path fill="#333" d="M75-87c-4 1-14 3-19 3V0H24v-190h32v83c26-2 31-21 43-41l26-42h33l-61 86L159 0h-35" id="af"/><g id="h"><use transform="matrix(0.04938271604938272,0,0,0.04938271604938272,0,0)" xlink:href="#V"/><use transform="matrix(0.04938271604938272,0,0,0.04938271604938272,9.876543209876544,0)" xlink:href="#ae"/><use transform="matrix(0.04938271604938272,0,0,0.04938271604938272,24.098765432098766,0)" xlink:href="#ad"/><use transform="matrix(0.04938271604938272,0,0,0.04938271604938272,34.0246913580247,0)" xlink:href="#ab"/><use transform="matrix(0.04938271604938272,0,0,0.04938271604938272,44.19753086419754,0)" xlink:href="#af"/><use transform="matrix(0.04938271604938272,0,0,0.04938271604938272,52.14814814814817,0)" xlink:href="#O"/></g><path fill="#fff" d="M191-190L154 0h-31l32-167H70L38 0H6l37-190h148" id="ag"/><path fill="#fff" d="M30-147c31-64 166-65 159 27C183-49 158 1 86 4 9 8 1-88 30-147zM88-20c53 0 68-48 68-100 0-31-11-51-44-50-52 1-68 46-68 97 0 32 13 53 44 53" id="ah"/><path fill="#fff" d="M-12-22c37 7 42-31 52-61l37-107h119L159 0h-32l32-167h-58C80-114 67-49 35-9 25 4 1 8-17 0" id="ai"/><path fill="#fff" d="M59-110c54-1 108-1 109 51C169 15 70 9 7-4l36-186h32zm76 54c0-36-44-31-81-31L42-23c39 4 93 9 93-33" id="aj"/><path fill="#fff" d="M145-55C149 17 8 26-2-41l29-8c4 39 86 41 84-6-1-27-25-33-53-33l5-24c31 0 62-3 62-34 0-36-68-28-72 1l-29-3c6-58 134-65 134 0 0 32-26 44-53 50 25 2 39 19 40 43" id="ak"/><path fill="#fff" d="M59-175c30-27 118-26 118 27 0 33-26 40-48 50 22 4 39 15 39 41C168 16 69 8 7-4c15-59 13-137 52-171zm76 119c0-34-43-32-81-31L42-23c39 4 93 9 93-33zm-41-54c49 12 71-58 17-58-36 0-47 25-52 58h35" id="al"/><path fill="#fff" d="M165-48c-4 18 1 34 23 27l-3 20c-29 8-62 0-52-35h-2C116-14 99 4 63 4 30 4 8-16 8-49c0-68 71-67 138-67 10-26 0-56-31-54-26 1-42 9-47 31l-32-5c8-67 160-71 144 15-5 28-9 54-15 81zM42-50c3 52 80 24 89-6 7-12 7-24 11-38-47 1-103-4-100 44" id="am"/><path fill="#fff" d="M248-111c6-24 9-61-24-58-72 9-57 108-77 169h-31l26-142c3-37-50-30-64-10C52-115 50-51 37 0H6l36-190h30c-1 10-6 24-4 32 13-43 101-52 105 5 13-22 29-41 61-41 90 0 28 129 23 194h-31" id="an"/><path fill="#fff" d="M111-194c62-3 86 47 72 106H45c-7 38 6 69 45 68 27-1 43-14 53-32l24 11C152-15 129 4 87 4 38 3 12-23 12-71c0-70 32-119 99-123zm44 81c14-66-71-72-95-28-4 8-8 17-11 28h106" id="ao"/><g id="i"><use transform="matrix(0.0491377314814815,0,0,0.0491377314814815,0,0)" xlink:href="#ag"/><use transform="matrix(0.0491377314814815,0,0,0.0491377314814815,9.729270833333336,0)" xlink:href="#ah"/><use transform="matrix(0.0491377314814815,0,0,0.0491377314814815,19.163715277777783,0)" xlink:href="#ai"/><use transform="matrix(0.0491377314814815,0,0,0.0491377314814815,29.138674768518527,0)" xlink:href="#aj"/><use transform="matrix(0.0491377314814815,0,0,0.0491377314814815,38.42570601851853,0)" xlink:href="#ak"/><use transform="matrix(0.0491377314814815,0,0,0.0491377314814815,46.43515625000002,0)" xlink:href="#ah"/><use transform="matrix(0.0491377314814815,0,0,0.0491377314814815,56.26270254629632,0)" xlink:href="#al"/><use transform="matrix(0.0491377314814815,0,0,0.0491377314814815,65.05835648148151,0)" xlink:href="#am"/><use transform="matrix(0.0491377314814815,0,0,0.0491377314814815,74.88590277777782,0)" xlink:href="#an"/><use transform="matrix(0.0491377314814815,0,0,0.0491377314814815,89.57808449074078,0)" xlink:href="#ao"/><use transform="matrix(0.0491377314814815,0,0,0.0491377314814815,98.81597800925931,0)" xlink:href="#ai"/><use transform="matrix(0.0491377314814815,0,0,0.0491377314814815,108.79093750000006,0)" xlink:href="#aj"/></g><path fill="#fff" d="M67-162c32-53 139-36 121 50C175-51 163 2 97 4 68 4 52-11 42-31 38 6 28 39 22 75H-9l50-265h29c-1 10 0 20-3 28zm89 36c0-26-10-43-35-43-54 0-67 50-69 103-1 29 14 45 42 46 53 0 62-58 62-106" id="ap"/><path fill="#fff" d="M188-155C184-77 168 4 86 4 35 4 7-29 12-84c5-54 32-96 89-96 26 0 46 10 57 26 8-58-28-99-83-80l-8-21c71-22 125 22 121 100zM45-81c-13 59 60 82 88 39 21-32 36-117-27-115-45 2-52 36-61 76" id="aq"/><path fill="#fff" d="M44-68c0 29 11 47 38 47 30 0 42-19 51-41l28 9C148-21 126 4 82 4 31 4 10-29 12-85c3-77 74-140 146-93 12 8 15 23 18 40l-31 5c-1-22-13-36-36-36-52 0-65 49-65 101" id="ar"/><path fill="#fff" d="M25-132c0-73 90-56 160-58L148 0h-31l15-81H91L28 0H-8l67-83c-18-7-34-23-34-49zm85-36c-53-12-72 64-20 66h46l13-66h-39" id="as"/><g id="j"><use transform="matrix(0.0491377314814815,0,0,0.0491377314814815,0,0)" xlink:href="#ag"/><use transform="matrix(0.0491377314814815,0,0,0.0491377314814815,9.729270833333336,0)" xlink:href="#ap"/><use transform="matrix(0.0491377314814815,0,0,0.0491377314814815,19.556817129629636,0)" xlink:href="#ao"/><use transform="matrix(0.0491377314814815,0,0,0.0491377314814815,29.18781250000001,0)" xlink:href="#aq"/><use transform="matrix(0.0491377314814815,0,0,0.0491377314814815,38.917083333333345,0)" xlink:href="#ah"/><use transform="matrix(0.0491377314814815,0,0,0.0491377314814815,48.74462962962964,0)" xlink:href="#ar"/><use transform="matrix(0.0491377314814815,0,0,0.0491377314814815,57.5894212962963,0)" xlink:href="#an"/><use transform="matrix(0.0491377314814815,0,0,0.0491377314814815,72.08505208333335,0)" xlink:href="#am"/><use transform="matrix(0.0491377314814815,0,0,0.0491377314814815,81.91259837962966,0)" xlink:href="#al"/><use transform="matrix(0.0491377314814815,0,0,0.0491377314814815,90.51170138888892,0)" xlink:href="#ai"/><use transform="matrix(0.0491377314814815,0,0,0.0491377314814815,100.48666087962967,0)" xlink:href="#as"/><use transform="matrix(0.0491377314814815,0,0,0.0491377314814815,109.9211053240741,0)" xlink:href="#ao"/><use transform="matrix(0.0491377314814815,0,0,0.0491377314814815,119.5521006944445,0)" xlink:href="#an"/></g><path fill="#fff" d="M75-190l-16 80h85l15-80h32L154 0h-31l16-87H54L38 0H6l37-190h32" id="at"/><path fill="#fff" d="M189 0l37-190h32L221 0h-32zM59-110c54-1 108-1 109 51C169 15 70 9 7-4l36-186h32zm76 54c0-36-44-31-81-31L42-23c39 4 93 9 93-33" id="au"/><g id="k"><use transform="matrix(0.0491377314814815,0,0,0.0491377314814815,0,0)" xlink:href="#aq"/><use transform="matrix(0.0491377314814815,0,0,0.0491377314814815,9.729270833333336,0)" xlink:href="#am"/><use transform="matrix(0.0491377314814815,0,0,0.0491377314814815,19.556817129629636,0)" xlink:href="#at"/><use transform="matrix(0.0491377314814815,0,0,0.0491377314814815,29.286087962962974,0)" xlink:href="#at"/><use transform="matrix(0.0491377314814815,0,0,0.0491377314814815,39.01535879629631,0)" xlink:href="#au"/><use transform="matrix(0.0491377314814815,0,0,0.0491377314814815,51.987719907407424,0)" xlink:href="#ao"/></g><path fill="#fff" d="M198-190L69 30C53 58 25 83-20 72c4-11-1-27 19-22 33-1 43-29 59-52L20-190h32L79-34l84-156h35" id="av"/><path fill="#fff" d="M127-81C87-53 5-64 27-131l11-59h32l-14 77c0 34 50 20 74 14l18-91h31L143 0h-32" id="aw"/><g id="l"><use transform="matrix(0.0491377314814815,0,0,0.0491377314814815,0,0)" xlink:href="#ag"/><use transform="matrix(0.0491377314814815,0,0,0.0491377314814815,9.729270833333336,0)" xlink:href="#ah"/><use transform="matrix(0.0491377314814815,0,0,0.0491377314814815,19.163715277777783,0)" xlink:href="#ai"/><use transform="matrix(0.0491377314814815,0,0,0.0491377314814815,28.9421238425926,0)" xlink:href="#av"/><use transform="matrix(0.0491377314814815,0,0,0.0491377314814815,37.78691550925927,0)" xlink:href="#aw"/><use transform="matrix(0.0491377314814815,0,0,0.0491377314814815,46.92653356481483,0)" xlink:href="#ao"/><use transform="matrix(0.0491377314814815,0,0,0.0491377314814815,56.75407986111113,0)" xlink:href="#at"/></g><g id="m"><use transform="matrix(0.0491377314814815,0,0,0.0491377314814815,0,0)" xlink:href="#ah"/><use transform="matrix(0.0491377314814815,0,0,0.0491377314814815,9.8275462962963,0)" xlink:href="#an"/><use transform="matrix(0.0491377314814815,0,0,0.0491377314814815,24.519728009259268,0)" xlink:href="#al"/><use transform="matrix(0.0491377314814815,0,0,0.0491377314814815,33.315381944444454,0)" xlink:href="#ao"/><use transform="matrix(0.0491377314814815,0,0,0.0491377314814815,42.946377314814825,0)" xlink:href="#an"/></g><g id="n"><use transform="matrix(0.0491377314814815,0,0,0.0491377314814815,0,0)" xlink:href="#ah"/><use transform="matrix(0.0491377314814815,0,0,0.0491377314814815,9.8275462962963,0)" xlink:href="#an"/></g><g id="o"><use transform="matrix(0.0491377314814815,0,0,0.0491377314814815,0,0)" xlink:href="#ar"/><use transform="matrix(0.0491377314814815,0,0,0.0491377314814815,8.84479166666667,0)" xlink:href="#ao"/><use transform="matrix(0.0491377314814815,0,0,0.0491377314814815,18.67233796296297,0)" xlink:href="#ap"/><use transform="matrix(0.0491377314814815,0,0,0.0491377314814815,28.499884259259268,0)" xlink:href="#al"/><use transform="matrix(0.0491377314814815,0,0,0.0491377314814815,37.295538194444454,0)" xlink:href="#ao"/><use transform="matrix(0.0491377314814815,0,0,0.0491377314814815,47.12308449074075,0)" xlink:href="#ap"/><use transform="matrix(0.0491377314814815,0,0,0.0491377314814815,56.95063078703704,0)" xlink:href="#am"/></g><path fill="#fff" d="M67 3c-93-2-31-127-26-193h32L48-50c-3 39 53 32 70 12 30-34 30-101 43-152h32L157 0h-30c1-10 6-24 4-33-14 20-29 37-64 36" id="ax"/><g id="p"><use transform="matrix(0.0491377314814815,0,0,0.0491377314814815,0,0)" xlink:href="#ar"/><use transform="matrix(0.0491377314814815,0,0,0.0491377314814815,8.84479166666667,0)" xlink:href="#ao"/><use transform="matrix(0.0491377314814815,0,0,0.0491377314814815,18.67233796296297,0)" xlink:href="#ap"/><use transform="matrix(0.0491377314814815,0,0,0.0491377314814815,28.499884259259268,0)" xlink:href="#al"/><use transform="matrix(0.0491377314814815,0,0,0.0491377314814815,37.68864004629631,0)" xlink:href="#ax"/><use transform="matrix(0.0491377314814815,0,0,0.0491377314814815,47.516186342592604,0)" xlink:href="#ar"/></g><g id="q"><use transform="matrix(0.0491377314814815,0,0,0.0491377314814815,0,0)" xlink:href="#at"/><use transform="matrix(0.0491377314814815,0,0,0.0491377314814815,9.729270833333336,0)" xlink:href="#am"/><use transform="matrix(0.0491377314814815,0,0,0.0491377314814815,18.377511574074077,0)" xlink:href="#aw"/><use transform="matrix(0.0491377314814815,0,0,0.0491377314814815,27.51712962962964,0)" xlink:href="#ax"/><use transform="matrix(0.0491377314814815,0,0,0.0491377314814815,37.344675925925934,0)" xlink:href="#at"/><use transform="matrix(0.0491377314814815,0,0,0.0491377314814815,47.07394675925927,0)" xlink:href="#am"/><use transform="matrix(0.0491377314814815,0,0,0.0491377314814815,56.90149305555558,0)" xlink:href="#ao"/><use transform="matrix(0.0491377314814815,0,0,0.0491377314814815,66.53248842592595,0)" xlink:href="#an"/></g><path fill="#fff" d="M123-28C108-12 96 5 65 4 23 3 8-32 13-77c6-62 21-115 84-117 28-1 42 16 51 35l19-102h32l-19 99c22-47 115-41 109 31-6 70-17 132-84 135-28 1-42-16-51-35-4 37-14 70-20 106h-31zM45-64c0 25 7 43 31 43 51 0 62-53 62-103 0-27-11-46-38-46-49 0-55 60-55 106zm211-62c0-26-6-43-30-43-52 0-59 52-62 103-2 27 13 46 37 46 49 0 55-59 55-106" id="ay"/><path fill="#fff" d="M240-190L203 0h-30l34-168L118 0H92L68-167 37 0H6l37-190h46l19 166c25-58 56-111 84-166h48" id="az"/><g id="r"><use transform="matrix(0.0491377314814815,0,0,0.0491377314814815,0,0)" xlink:href="#ay"/><use transform="matrix(0.0491377314814815,0,0,0.0491377314814815,14.937870370370375,0)" xlink:href="#ah"/><use transform="matrix(0.0491377314814815,0,0,0.0491377314814815,24.765416666666674,0)" xlink:href="#ap"/><use transform="matrix(0.0491377314814815,0,0,0.0491377314814815,34.396412037037045,0)" xlink:href="#az"/><use transform="matrix(0.0491377314814815,0,0,0.0491377314814815,46.48429398148149,0)" xlink:href="#ax"/><use transform="matrix(0.0491377314814815,0,0,0.0491377314814815,56.31184027777778,0)" xlink:href="#ap"/><use transform="matrix(0.0491377314814815,0,0,0.0491377314814815,66.1393865740741,0)" xlink:href="#ah"/><use transform="matrix(0.0491377314814815,0,0,0.0491377314814815,75.9669328703704,0)" xlink:href="#al"/><use transform="matrix(0.0491377314814815,0,0,0.0491377314814815,84.76258680555559,0)" xlink:href="#am"/><use transform="matrix(0.0491377314814815,0,0,0.0491377314814815,94.59013310185189,0)" xlink:href="#an"/><use transform="matrix(0.0491377314814815,0,0,0.0491377314814815,109.28231481481485,0)" xlink:href="#aj"/></g><path fill="#fff" d="M43-190h32l-17 83c31-2 40-21 56-41l34-42h34l-65 76c-5 5-9 9-12 11L146 0h-32L80-88c-8 2-15 5-26 4L38 0H6" id="aA"/><g id="s"><use transform="matrix(0.0491377314814815,0,0,0.0491377314814815,0,0)" xlink:href="#ax"/><use transform="matrix(0.0491377314814815,0,0,0.0491377314814815,9.8275462962963,0)" xlink:href="#at"/><use transform="matrix(0.0491377314814815,0,0,0.0491377314814815,19.556817129629636,0)" xlink:href="#aq"/><use transform="matrix(0.0491377314814815,0,0,0.0491377314814815,29.286087962962974,0)" xlink:href="#ao"/><use transform="matrix(0.0491377314814815,0,0,0.0491377314814815,39.11363425925927,0)" xlink:href="#aA"/><use transform="matrix(0.0491377314814815,0,0,0.0491377314814815,47.22135995370372,0)" xlink:href="#ar"/><use transform="matrix(0.0491377314814815,0,0,0.0491377314814815,56.06615162037039,0)" xlink:href="#au"/></g><path fill="#333" d="M131-81C94-61 21-56 21-118v-72h32c4 39-16 99 29 99 19 0 33-5 49-8v-91h31V0h-31v-81" id="aB"/><path fill="#333" d="M100-194c63 0 86 42 84 106H49c0 40 14 67 53 68 26 1 43-12 49-29l28 8c-11 28-37 45-77 45C44 4 14-33 15-96c1-61 26-98 85-98zm52 81c6-60-76-77-97-28-3 7-6 17-6 28h103zm-31-101v-33h29v33h-29zm-69 0v-33h29v33H52" id="aC"/><g id="t"><use transform="matrix(0.04938271604938272,0,0,0.04938271604938272,0,0)" xlink:href="#V"/><use transform="matrix(0.04938271604938272,0,0,0.04938271604938272,9.481481481481483,0)" xlink:href="#S"/><use transform="matrix(0.04938271604938272,0,0,0.04938271604938272,17.580246913580247,0)" xlink:href="#aB"/><use transform="matrix(0.04938271604938272,0,0,0.04938271604938272,26.814814814814817,0)" xlink:href="#aC"/><use transform="matrix(0.04938271604938272,0,0,0.04938271604938272,36.69135802469136,0)" xlink:href="#S"/></g><path fill="#333" d="M63-143c77-2 155-4 155 70C218 13 117 1 30 0v-248h162v28H63v77zm0 116c54-1 121 11 121-45 0-53-67-44-121-44v89" id="aD"/><path fill="#333" d="M206-28h31V72h-32V0H34v72H3V-28h25c38-50 38-143 51-220h127v220zm-32 0v-192h-66C95-156 94-78 66-28h108" id="aE"/><g id="u"><use transform="matrix(0.04938271604938272,0,0,0.04938271604938272,0,0)" xlink:href="#aD"/><use transform="matrix(0.04938271604938272,0,0,0.04938271604938272,11.654320987654321,0)" xlink:href="#aE"/></g><path fill="#333" d="M165-267c8 67-110 75-125 20-2-7-4-13-4-20h29c1 23 13 35 36 35s34-13 36-35h28zM56-190L54-37l88-153h34V0h-30l2-153L59 0H25v-190h31" id="aF"/><g id="v"><use transform="matrix(0.04938271604938272,0,0,0.04938271604938272,0,0)" xlink:href="#aa"/><use transform="matrix(0.04938271604938272,0,0,0.04938271604938272,8.88888888888889,0)" xlink:href="#O"/><use transform="matrix(0.04938271604938272,0,0,0.04938271604938272,18.765432098765434,0)" xlink:href="#aF"/><use transform="matrix(0.04938271604938272,0,0,0.04938271604938272,28.69135802469136,0)" xlink:href="#aB"/><use transform="matrix(0.04938271604938272,0,0,0.04938271604938272,37.92592592592593,0)" xlink:href="#Y"/><use transform="matrix(0.04938271604938272,0,0,0.04938271604938272,47.802469135802475,0)" xlink:href="#aa"/></g><path fill="#333" d="M20-138c-1-64 85-51 150-52V0h-32v-81H94L39 0H3l60-83c-28-5-43-24-43-55zm33 3c0 40 46 33 85 33v-66c-39 0-85-6-85 33" id="aG"/><path fill="#333" d="M103-251c84 0 111 97 45 133-19 10-37 24-39 52H78c0-63 77-55 77-114 0-30-21-42-52-43-32 0-53 17-56 46l-32-2c7-45 34-72 88-72zM77 0v-35h34V0H77" id="aH"/><g id="w"><use transform="matrix(0.04938271604938272,0,0,0.04938271604938272,0,0)" xlink:href="#ad"/><use transform="matrix(0.04938271604938272,0,0,0.04938271604938272,9.925925925925927,0)" xlink:href="#aa"/><use transform="matrix(0.04938271604938272,0,0,0.04938271604938272,18.814814814814817,0)" xlink:href="#U"/><use transform="matrix(0.04938271604938272,0,0,0.04938271604938272,28.395061728395063,0)" xlink:href="#V"/><use transform="matrix(0.04938271604938272,0,0,0.04938271604938272,37.876543209876544,0)" xlink:href="#W"/><use transform="matrix(0.04938271604938272,0,0,0.04938271604938272,48.24691358024692,0)" xlink:href="#T"/><use transform="matrix(0.04938271604938272,0,0,0.04938271604938272,57.48148148148149,0)" xlink:href="#X"/><use transform="matrix(0.04938271604938272,0,0,0.04938271604938272,65.4320987654321,0)" xlink:href="#R"/><use transform="matrix(0.04938271604938272,0,0,0.04938271604938272,74.12345679012346,0)" xlink:href="#O"/><use transform="matrix(0.04938271604938272,0,0,0.04938271604938272,83.4074074074074,0)" xlink:href="#S"/><use transform="matrix(0.04938271604938272,0,0,0.04938271604938272,91.30864197530863,0)" xlink:href="#aa"/><use transform="matrix(0.04938271604938272,0,0,0.04938271604938272,100.19753086419752,0)" xlink:href="#aG"/><use transform="matrix(0.04938271604938272,0,0,0.04938271604938272,109.77777777777777,0)" xlink:href="#aH"/></g></defs></g></svg>